<svg width="127" height="166" viewBox="0 0 127 166" fill="none" xmlns="http://www.w3.org/2000/svg">
<path d="M7.96516 111.572C11.0023 105.353 23.6331 87.5879 29.1169 79.9347L76.6633 72.3419L80.8213 75.4152L80.4598 75.9576C82.81 74.1497 91.4876 70.5341 95.2841 66.9184C98.3213 64.0258 101.25 64.99 102.335 65.8336C106.529 64.9658 107.095 68.1236 106.854 69.8109C110.47 75.0536 104.323 80.8388 101.431 83.3697C99.1168 85.3945 91.1863 90.8422 87.5104 93.3129C88.6674 97.941 88.5951 107.595 88.5951 112.476C88.7759 117.357 88.2335 125.673 89.1374 126.216C89.8606 126.65 93.6571 126.879 95.4649 126.939C102.841 127.228 108.421 122.48 110.289 120.069C111.555 119.527 118.786 108.68 114.447 105.606C110.108 102.533 107.035 106.872 104.323 100.725C101.612 94.5784 110.651 88.9741 117.701 93.3129C124.752 97.6517 125.475 102.533 125.656 109.222C125.837 115.911 121.859 123.142 114.447 130.735C107.035 138.328 90.7645 133.447 90.9453 135.436C91.1261 137.424 92.3916 157.311 91.6684 161.469C91.0899 164.795 87.6912 164.783 86.0641 164.361C85.341 165.518 80.0982 164.843 77.5672 164.361C74.6747 164 72.3245 162.734 70.3358 160.384C68.7449 158.504 66.7804 146.59 65.997 140.869C61.8384 141.864 56.0499 141.485 52.9805 141.04C52.86 146.524 52.2935 158.359 50.9918 161.83C49.6902 165.301 44.4233 164.482 41.9526 163.638C39.3493 165.084 36.047 164.241 34.7212 163.638L32.9134 162.734C28.2853 161.433 29.1772 155.563 30.2016 152.791C30.5029 151.224 30.527 146.247 28.2131 138.871C25.8991 131.495 27.972 118.563 29.2977 113.018C28.213 113.621 25.0673 115.947 21.1624 120.431C17.2574 124.914 13.7502 123.504 12.4847 122.238C8.43511 122.383 7.78434 119.768 7.96516 118.442C5.94037 115.549 7.1215 112.657 7.96516 111.572Z" fill="white"/>
<path d="M7.96516 118.442C5.94037 115.549 7.1215 112.657 7.96516 111.572C11.0023 105.353 23.6331 87.5879 29.1169 79.9347L76.6633 72.3419L80.8213 75.4152L80.4598 75.9576C82.81 74.1497 91.4876 70.5341 95.2841 66.9184C98.3213 64.0258 101.25 64.99 102.335 65.8336C106.529 64.9658 107.095 68.1236 106.854 69.8109M12.4847 122.238C8.43511 122.383 7.78434 119.768 7.96516 118.442C8.02539 117.719 8.47127 116.092 9.77292 115.369M12.4847 122.238C12.6655 121.274 13.2801 119.31 14.2925 119.165M12.4847 122.238C13.7502 123.504 17.2574 124.914 21.1624 120.431C25.0673 115.947 28.213 113.621 29.2977 113.018M29.2977 113.018L32.9134 100.544M41.9526 163.638C39.3493 165.084 36.047 164.241 34.7212 163.638L32.9134 162.734C28.2853 161.433 29.1771 155.563 30.2016 152.791C30.5029 151.224 30.527 146.247 28.2131 138.871C25.8991 131.495 27.972 118.563 29.2977 113.018M34.7212 163.638C34.5404 162.071 34.5404 158.793 35.9867 158.215M41.9526 163.638C41.9526 162.734 42.278 160.601 43.5797 159.299M41.9526 163.638C44.4233 164.482 49.6902 165.301 50.9918 161.83C52.2935 158.359 52.86 146.524 52.9805 141.04M52.9805 141.04C51.4739 140.739 48.2801 139.883 47.5569 138.871M52.9805 141.04C56.0499 141.485 61.8384 141.864 65.997 140.869M69.6127 139.232C68.7418 139.99 67.4719 140.516 65.997 140.869M65.997 140.869C66.7804 146.59 68.7449 158.504 70.3358 160.384C72.3245 162.734 74.6747 164 77.5672 164.361M77.5672 164.361C77.3864 163.156 77.1695 160.456 77.748 159.299M77.5672 164.361C80.0982 164.843 85.341 165.518 86.0641 164.361M86.0641 164.361C86.7872 163.204 86.2449 159.902 85.8833 158.395M86.0641 164.361C87.6912 164.783 91.0899 164.795 91.6684 161.469C92.3916 157.311 91.1261 137.424 90.9453 135.436C90.7645 133.447 107.035 138.328 114.447 130.735C121.859 123.142 125.837 115.911 125.656 109.222C125.475 102.533 124.752 97.6517 117.701 93.3129C110.651 88.9741 101.612 94.5784 104.323 100.725C107.035 106.872 110.108 102.533 114.447 105.606C118.786 108.68 111.555 119.527 110.289 120.069C108.421 122.48 102.841 127.228 95.4649 126.939C93.6571 126.879 89.8606 126.65 89.1374 126.216C88.2335 125.673 88.7759 117.357 88.5951 112.476C88.5951 107.595 88.6674 97.941 87.5104 93.3129M106.854 69.8109C110.47 75.0536 104.323 80.8388 101.431 83.3697C99.1168 85.3945 91.1863 90.8422 87.5104 93.3129L84.6178 95.8439M106.854 69.8109C106.734 70.3532 106.276 71.6187 105.408 72.3419M102.335 66.0144C102.274 66.9786 102.009 68.9432 101.431 69.0878" stroke="#8C7F7E" stroke-width="2" stroke-linecap="round" stroke-linejoin="round"/>
<path d="M13.9194 72.7851C13.8803 69.5673 16.7098 67.2196 17.6795 66.1753C17.0963 65.7817 13.487 66.5829 12.7144 66.317C11.8938 58.5977 18.4497 49.2197 18.5476 48.711C12.0683 41.9777 11.4459 27.122 11.9446 20.5358C20.1173 19.1544 33.0345 23.3634 38.4716 25.6407C47.0358 22.2244 63.1363 23.5878 70.116 24.6965C75.895 18.634 91.7096 17.7736 98.8945 18.1012C96.702 37.1982 92.0327 42.6301 91.7433 43.2778C91.454 43.9255 95.2782 49.924 95.568 50.4593C97.1762 53.4297 98.827 58.3883 97.9632 59.453C97.2722 60.3047 94.2577 60.3646 93.7362 60.7918C95.6097 61.3282 99.0718 65.6902 97.5116 66.0934C96.2635 66.4159 91.1334 73.8672 83.6053 76.8243C60.4223 85.9308 32.9863 80.6801 28.1926 79.0542C24.3577 77.7535 16.409 74.3396 13.9194 72.7851Z" fill="#FEFEFE" stroke="#8C7F7E" stroke-width="2" stroke-linejoin="round"/>
<path d="M89.1594 26.0736C89.807 26.0103 90.3286 26.5778 90.2126 27.218C89.9668 28.5747 89.5483 30.7556 89.125 32.375C88.7032 33.9891 87.6594 35.9813 86.9609 37.209C86.6316 37.7879 85.8412 37.8542 85.3997 37.3556L78.5578 29.629C78.1025 29.1148 78.2923 28.3131 78.9398 28.0837C80.1055 27.6705 81.8935 27.1007 83.6568 26.789C85.5574 26.4531 87.7911 26.2074 89.1594 26.0736Z" fill="#F1ADAA" fill-opacity="0.46"/>
<path d="M21.3749 27.986C21.3639 27.3416 21.9659 26.8742 22.59 27.0349C23.9897 27.3953 26.27 28.0018 27.6783 28.4765C29.0642 28.9437 31.0667 30.1649 32.3099 30.9704C32.8772 31.3379 32.8975 32.1473 32.3615 32.5592L24.198 38.833C23.6554 39.25 22.8741 39.0087 22.6923 38.3491C22.3784 37.2108 21.9575 35.4577 21.7261 33.5436C21.4744 31.4623 21.3974 29.3026 21.3749 27.986Z" fill="#F1ADAA" fill-opacity="0.46"/>
<path d="M79.6572 30.5081L80.5817 30.2527C81.2822 30.0591 81.9486 30.6538 81.8359 31.3717L81.6979 32.2503C81.6487 32.5637 81.934 32.8263 82.2423 32.7514C82.4971 32.6895 82.7499 32.8603 82.7875 33.1197L82.9395 34.1684M28.3671 36.83L28.087 35.8637C27.9844 35.51 28.2843 35.1697 28.6481 35.2268C29.0337 35.2874 29.3384 34.9046 29.1928 34.5424L28.9786 34.0091C28.7138 33.3501 29.3456 32.6849 30.0173 32.9153L31.5236 33.432" stroke="#8C7F7E" stroke-width="2"/>
<path d="M48.9486 54.9678C48.4338 57.5502 45.0694 60.4317 41.3419 59.6495C37.6143 58.8673 34.3269 56.2383 34.995 52.8873C35.5098 50.3048 41.0927 49.1273 44.8202 49.9095C48.2587 51.4765 49.4634 52.3854 48.9486 54.9678Z" fill="#78C4DA" fill-opacity="0.5"/>
<path d="M77.5853 53.8929C77.1318 56.3271 73.8834 58.9799 70.2038 58.1546C66.5242 57.3292 63.0722 55.5164 63.6608 52.3577C64.1144 49.9235 69.7454 48.1832 73.425 49.0085C76.8364 50.5706 78.0389 51.4587 77.5853 53.8929Z" fill="#78C4DA" fill-opacity="0.5"/>
<path d="M33.6946 52.4576C33.3153 52.8555 33.3319 53.4898 33.7318 53.8744C34.1317 54.2589 34.7634 54.2481 35.1427 53.8502L34.4187 53.1539L33.6946 52.4576ZM48.8154 53.6051C49.268 53.9251 49.8899 53.8186 50.2045 53.3672C50.5192 52.9158 50.4073 52.2904 49.9547 51.9703L49.3851 52.7877L48.8154 53.6051ZM36.0502 55.6357C35.9382 55.0929 35.4099 54.7399 34.8702 54.8473C34.3305 54.9547 33.9838 55.4818 34.0957 56.0247L35.0729 55.8302L36.0502 55.6357ZM49.9371 56.5519C50.2403 56.0926 50.113 55.4701 49.6527 55.1614C49.1923 54.8527 48.5734 54.9748 48.2702 55.4341L49.1037 55.993L49.9371 56.5519ZM34.4187 53.1539L35.1427 53.8502C36.2006 52.7405 37.3271 51.2258 39.3129 50.6313C41.2075 50.064 44.1483 50.3045 48.8154 53.6051L49.3851 52.7877L49.9547 51.9703C45.0201 48.4805 41.4355 47.8993 38.7262 48.7104C36.1081 49.4943 34.5523 51.5579 33.6946 52.4576L34.4187 53.1539ZM35.0729 55.8302L34.0957 56.0247C34.15 56.2878 34.2773 56.5159 34.3809 56.6762C34.4953 56.8532 34.6377 57.0329 34.7951 57.209C35.1109 57.5621 35.531 57.9494 36.0258 58.3326C37.0138 59.0977 38.3649 59.8966 39.903 60.3812C41.4442 60.8668 43.2168 61.0493 44.999 60.5127C46.795 59.9718 48.4987 58.731 49.9371 56.5519L49.1037 55.993L48.2702 55.4341C47.0477 57.2861 45.7008 58.2039 44.4093 58.5927C43.1039 58.9858 41.7521 58.869 40.4846 58.4697C39.214 58.0694 38.0721 57.3977 37.2356 56.75C36.8182 56.4267 36.4931 56.122 36.275 55.878C36.1654 55.7555 36.0936 55.6603 36.0522 55.5962C35.9999 55.5154 36.0296 55.5362 36.0502 55.6357L35.0729 55.8302Z" fill="black"/>
<path d="M62.5547 52.2619C62.1919 52.6664 62.231 53.3038 62.6421 53.6857C63.0532 54.0675 63.6805 54.0492 64.0434 53.6447L63.299 52.9533L62.5547 52.2619ZM77.4523 52.3402C77.8997 52.6767 78.5194 52.5905 78.8363 52.1476C79.1532 51.7047 79.0474 51.0729 78.5999 50.7363L78.0261 51.5383L77.4523 52.3402ZM64.7434 55.1265C64.6361 54.5777 64.1133 54.2061 63.5755 54.2966C63.0378 54.3871 62.6889 54.9054 62.7961 55.4542L63.7697 55.2904L64.7434 55.1265ZM78.2695 54.8139C78.5571 54.3503 78.4119 53.7253 77.9451 53.4178C77.4782 53.1104 76.8667 53.2369 76.579 53.7004L77.4243 54.2571L78.2695 54.8139ZM63.299 52.9533L64.0434 53.6447C65.0451 52.528 66.2805 50.7323 68.3498 49.8869C70.2751 49.1004 73.1398 49.0969 77.4523 52.3402L78.0261 51.5383L78.5999 50.7363C73.8907 47.1946 70.2895 46.898 67.5556 48.0148C64.9657 49.0729 63.3484 51.3772 62.5547 52.2619L63.299 52.9533ZM63.7697 55.2904L62.7961 55.4542C62.8519 55.7393 62.9906 55.9774 63.1032 56.1407C63.226 56.3188 63.3769 56.4918 63.5394 56.6547C63.8653 56.9814 64.2937 57.3237 64.7909 57.6497C65.7854 58.3018 67.1338 58.9406 68.6524 59.2614C70.1763 59.5833 71.9004 59.5901 73.603 58.9343C75.3136 58.2754 76.9278 56.9761 78.2695 54.8139L77.4243 54.2571L76.579 53.7004C75.4283 55.5548 74.1215 56.5562 72.8444 57.0481C71.5593 57.543 70.2292 57.5508 68.9944 57.2899C67.7543 57.028 66.6397 56.5004 65.8289 55.9688C65.4234 55.7029 65.1137 55.4488 64.9111 55.2457C64.8093 55.1436 64.7484 55.0683 64.7176 55.0235C64.6764 54.9639 64.7195 55.0045 64.7434 55.1265L63.7697 55.2904Z" fill="black"/>
<path d="M45.6818 52.2643C45.5168 54.8425 44.2472 57.8495 41.8665 57.6057C39.0421 57.3165 38.6681 53.9779 38.8331 51.3997C38.9981 48.8215 41.0808 49.8028 42.3184 49.8929C43.556 49.9831 45.8468 49.6861 45.6818 52.2643Z" fill="black"/>
<path d="M74.1781 51.4725C74.0183 54.1859 72.7524 57.348 70.3658 57.086C67.5345 56.7751 67.1524 53.2602 67.3122 50.5468C67.472 47.8334 69.5615 48.8711 70.802 48.9688C72.0426 49.0665 74.3379 48.7591 74.1781 51.4725Z" fill="black"/>
<path d="M40.0866 51.1027C40.0987 50.857 40.3271 50.6808 40.568 50.7314C40.7622 50.7721 40.898 50.9488 40.8874 51.1469L40.7434 53.8362C40.7294 54.0981 40.4688 54.2731 40.2207 54.1871C40.0541 54.1294 39.9454 53.9685 39.9541 53.7927L40.0866 51.1027Z" fill="white"/>
<path d="M72.2676 50.3074C72.2781 50.0753 72.494 49.9107 72.7212 49.9616C72.9021 50.0022 73.0286 50.1681 73.0195 50.3529L72.8857 53.0798C72.8735 53.3283 72.6252 53.4914 72.391 53.4049C72.2374 53.3481 72.1375 53.198 72.1448 53.035L72.2676 50.3074Z" fill="white"/>
<path d="M31.0777 56.0507C31.2776 53.8506 33.2247 52.2122 35.4265 52.3913L47.5987 53.3812C49.8006 53.5603 51.4235 55.489 51.2236 57.6891L51.0965 59.0886C50.8966 61.2887 48.9495 62.927 46.7477 62.748L34.5755 61.758C32.3736 61.5789 30.7507 59.6503 30.9506 57.4502L31.0777 56.0507Z" fill="#B1B2B4" fill-opacity="0.33"/>
<path d="M34.302 59.9319C34.2793 60.2143 33.9977 60.4011 33.7288 60.3122C33.5375 60.2489 33.4145 60.0628 33.4312 59.8619L33.8676 54.6099C33.8936 54.2978 34.2339 54.1168 34.5069 54.27C34.653 54.352 34.738 54.5116 34.7245 54.6787L34.302 59.9319Z" fill="white" fill-opacity="0.8"/>
<path d="M32.8698 59.0303C32.8437 59.282 32.5939 59.4474 32.352 59.373C32.1685 59.3166 32.0508 59.1381 32.0713 58.9472L32.4698 55.227C32.499 54.9535 32.7918 54.7924 33.0383 54.9141C33.1863 54.9872 33.2731 55.1445 33.256 55.3088L32.8698 59.0303Z" fill="white" fill-opacity="0.8"/>
<path d="M52.4457 55.6745C52.5091 55.1254 52.1166 54.6245 51.5691 54.5557C51.0216 54.4869 50.5264 54.8763 50.4631 55.4255L51.4544 55.55L52.4457 55.6745ZM50.6822 62.2461L49.6909 62.1216L49.6872 62.1539L49.6856 62.1864L50.6822 62.2461ZM30.979 61.1926L31.0448 60.1934L31.0308 60.1923L31.0167 60.1916L30.979 61.1926ZM30.5456 59.1616L31.5349 59.3028L31.5363 59.2921L31.5375 59.2813L30.5456 59.1616ZM32.0796 54.3715C32.1403 53.822 31.7454 53.323 31.1976 53.2569C30.6498 53.1907 30.1566 53.5826 30.0959 54.132L31.0878 54.2518L32.0796 54.3715ZM51.4544 55.55L50.4631 55.4255L49.6909 62.1216L50.6822 62.2461L51.6735 62.3707L52.4457 55.6745L51.4544 55.55ZM50.6822 62.2461L49.6856 62.1864C49.6838 62.2221 49.6811 62.1772 49.7115 62.1071C49.751 62.0158 49.8224 61.9345 49.9019 61.8891C49.9639 61.8538 49.9666 61.8774 49.8332 61.8817C49.7004 61.886 49.4751 61.8698 49.1215 61.7934L48.9204 62.7729L48.7193 63.7525C49.5754 63.9375 50.3286 63.9599 50.8999 63.6341C51.5893 63.241 51.6658 62.5677 51.6789 62.3058L50.6822 62.2461ZM48.9204 62.7729L49.1215 61.7934C48.6494 61.6914 47.6008 61.5697 46.2892 61.4395C44.9485 61.3065 43.2599 61.158 41.4562 61.0078C37.848 60.7075 33.7624 60.3994 31.0448 60.1934L30.979 61.1926L30.9132 62.1918C33.633 62.398 37.7106 62.7056 41.31 63.0051C43.11 63.155 44.7863 63.3024 46.1114 63.434C47.4657 63.5684 48.3838 63.68 48.7193 63.7525L48.9204 62.7729ZM30.979 61.1926L31.0167 60.1916C30.9136 60.1867 30.8759 60.1858 30.836 60.1825C30.7987 60.1794 30.8374 60.1791 30.9041 60.2012C30.9869 60.2285 31.114 60.2903 31.2267 60.4168C31.3342 60.5374 31.3726 60.6545 31.3849 60.7036C31.3957 60.7465 31.3909 60.7544 31.39 60.6971C31.3892 60.644 31.3918 60.5611 31.4019 60.4351C31.4222 60.1804 31.4661 59.8225 31.5349 59.3028L30.5456 59.1616L29.5564 59.0204C29.4885 59.5333 29.4375 59.9417 29.4124 60.2566C29.3898 60.5402 29.3745 60.8761 29.4499 61.1764C29.4931 61.3484 29.5768 61.5566 29.7449 61.7452C29.9181 61.9397 30.1212 62.0464 30.2962 62.1043C30.4552 62.1568 30.6025 62.1726 30.6912 62.1799C30.7772 62.187 30.8827 62.1908 30.9412 62.1935L30.979 61.1926ZM30.5456 59.1616L31.5375 59.2813L32.0796 54.3715L31.0878 54.2518L30.0959 54.132L29.5538 59.0419L30.5456 59.1616Z" fill="#616471"/>
<path d="M29.7597 58.6906C30.2381 58.9631 30.8396 58.789 31.1033 58.3017C31.367 57.8145 31.193 57.1986 30.7146 56.9261L30.2371 57.8084L29.7597 58.6906ZM25.902 54.1849C25.4236 53.9125 24.822 54.0866 24.5583 54.5738C24.2947 55.0611 24.4687 55.677 24.9471 55.9494L25.4245 55.0672L25.902 54.1849ZM30.2371 57.8084L30.7146 56.9261L25.902 54.1849L25.4245 55.0672L24.9471 55.9494L29.7597 58.6906L30.2371 57.8084Z" fill="#616471"/>
<path d="M87.3888 54.5388C87.8563 54.2529 88.0062 53.6324 87.7236 53.1529C87.4411 52.6734 86.833 52.5164 86.3656 52.8023L86.8772 53.6705L87.3888 54.5388ZM81.5145 55.7688C81.047 56.0547 80.8971 56.6752 81.1797 57.1547C81.4623 57.6342 82.0703 57.7912 82.5378 57.5053L82.0261 56.6371L81.5145 55.7688ZM86.8772 53.6705L86.3656 52.8023L81.5145 55.7688L82.0261 56.6371L82.5378 57.5053L87.3888 54.5388L86.8772 53.6705Z" fill="#616471"/>
<path d="M54.2689 69.4133C53.7353 69.2698 53.1908 69.5867 53.0529 70.1212C52.9149 70.6556 53.2356 71.2052 53.7693 71.3487L54.0191 70.381L54.2689 69.4133ZM60.6105 70.8252C61.0762 70.5335 61.2146 69.9158 60.9197 69.4456C60.6247 68.9753 60.0082 68.8306 59.5425 69.1224L60.0765 69.9738L60.6105 70.8252ZM57.9879 66.8318C57.9492 66.2795 57.4721 65.859 56.9222 65.8928C56.3724 65.9265 55.958 66.4016 55.9967 66.954L56.9923 66.8929L57.9879 66.8318ZM56.2339 70.34C56.2726 70.8923 56.7497 71.3128 57.2996 71.279C57.8494 71.2453 58.2637 70.7702 58.2251 70.2178L57.2295 70.2789L56.2339 70.34ZM54.0191 70.381L53.7693 71.3487C55.1545 71.7211 56.3521 71.9228 57.4677 71.8584C58.61 71.7924 59.6117 71.451 60.6105 70.8252L60.0765 69.9738L59.5425 69.1224C58.7971 69.5894 58.1133 69.8128 57.3346 69.8577C56.5292 69.9043 55.5702 69.7632 54.2689 69.4133L54.0191 70.381ZM56.9923 66.8929L55.9967 66.954L56.2339 70.34L57.2295 70.2789L58.2251 70.2178L57.9879 66.8318L56.9923 66.8929Z" fill="#8C7F7E"/>
<path d="M57.7766 65.1391C57.3915 65.695 56.5772 65.7164 56.1635 65.1815L54.7208 63.3159C54.2792 62.7447 54.5759 61.9293 55.293 61.8446C55.7555 61.79 56.2918 61.7483 56.8538 61.7478C57.4846 61.7473 58.0649 61.8157 58.5409 61.9004C59.1877 62.0154 59.4352 62.7446 59.0611 63.2847L57.7766 65.1391Z" fill="#DC9895"/>
<path d="M61.5036 57.6612C61.3324 55.4587 62.9764 53.5034 65.1756 53.2938L77.3304 52.1358C79.5296 51.9263 81.4511 53.5419 81.6224 55.7444L81.7314 57.1476C81.9027 59.3501 80.2587 61.3054 78.0595 61.515L65.9047 62.673C63.7055 62.8825 61.7839 61.2669 61.6127 59.0644L61.5036 57.6612Z" fill="#B1B2B4" fill-opacity="0.33"/>
<path d="M80.3073 59.145C80.3137 59.434 80.0483 59.653 79.7657 59.5919C79.5632 59.548 79.4174 59.3708 79.4134 59.1636L79.3112 53.9135C79.305 53.5947 79.6295 53.3754 79.923 53.5C80.0822 53.5676 80.187 53.7223 80.1909 53.8952L80.3073 59.145Z" fill="white" fill-opacity="0.8"/>
<path d="M78.7774 58.5995C78.7846 58.8578 78.5545 59.0585 78.2996 59.0163C78.105 58.9841 77.9608 58.8182 77.956 58.621L77.865 54.8985C77.8581 54.6184 78.1313 54.4163 78.3972 54.5048C78.5586 54.5585 78.6691 54.7074 78.6738 54.8774L78.7774 58.5995Z" fill="white" fill-opacity="0.8"/>
<path d="M82.2996 53.5072C82.264 52.956 81.7884 52.5373 81.2373 52.5721C80.6861 52.6068 80.2682 53.0818 80.3038 53.633L81.3017 53.5701L82.2996 53.5072ZM81.6834 59.483L80.6855 59.5459L80.688 59.585L80.6936 59.6238L81.6834 59.483ZM62.9472 62.8204L62.8199 61.8283L62.8059 61.8301L62.792 61.8323L62.9472 62.8204ZM61.5496 60.6328L60.5514 60.691L60.5515 60.6924L61.5496 60.6328ZM62.2349 55.3515C62.2019 54.8002 61.7282 54.3793 61.1769 54.4115C60.6256 54.4437 60.2055 54.9168 60.2385 55.4681L61.2367 55.4098L62.2349 55.3515ZM81.3017 53.5701L80.3038 53.633L80.6855 59.5459L81.6834 59.483L82.6813 59.4201L82.2996 53.5072L81.3017 53.5701ZM81.6834 59.483L80.6936 59.6238C80.7112 59.7457 80.7229 59.8014 80.7257 59.8878C80.7284 59.9686 80.7173 59.997 80.7194 59.9918C80.7219 59.9854 80.7291 59.9708 80.7428 59.9547C80.7572 59.9379 80.7682 59.9319 80.7653 59.9335C80.7557 59.9388 80.6494 59.993 80.3506 59.9897L80.341 60.9897L80.3315 61.9896C80.8578 61.9954 81.3376 61.9059 81.7416 61.6805C82.1644 61.4447 82.4318 61.1 82.5773 60.7348C82.8323 60.0951 82.6832 59.4111 82.6732 59.3421L81.6834 59.483ZM80.341 60.9897L80.3506 59.9897C79.4494 59.9797 76.3734 60.2764 72.9451 60.6465C69.4736 61.0213 65.5315 61.4842 62.8199 61.8283L62.9472 62.8204L63.0746 63.8124C65.7727 63.4701 69.7023 63.0086 73.1628 62.635C76.6663 62.2568 79.5824 61.9813 80.3315 61.9896L80.341 60.9897ZM62.9472 62.8204L62.792 61.8323C62.6999 61.8466 62.689 61.8357 62.7189 61.8432C62.7374 61.8478 62.7613 61.8569 62.785 61.8717C62.8086 61.8864 62.8194 61.8988 62.819 61.8984C62.8143 61.8927 62.7571 61.8202 62.6946 61.5976C62.6328 61.3771 62.5769 61.0492 62.5477 60.5731L61.5496 60.6328L60.5515 60.6924C60.6176 61.7709 60.8181 62.6281 61.2938 63.1897C61.8719 63.8722 62.6228 63.8832 63.1025 63.8085L62.9472 62.8204ZM61.5496 60.6328L62.5478 60.5745L62.2349 55.3515L61.2367 55.4098L60.2385 55.4681L60.5514 60.691L61.5496 60.6328Z" fill="#616471"/>
<path d="M51.2019 59.4735C54.0781 58.6851 59.3229 58.7475 61.3233 59.2447" stroke="#616471" stroke-width="2" stroke-linecap="round" stroke-linejoin="round"/>
<ellipse cx="1.0138" cy="1.37897" rx="1.0138" ry="1.37897" transform="matrix(0.982667 0.185379 -0.183532 0.983014 97.7795 67.28)" fill="#F1ADAA" fill-opacity="0.51"/>
<ellipse cx="1.01033" cy="1.35284" rx="1.01033" ry="1.35284" transform="matrix(0.760312 0.649558 -0.60785 0.794051 103.256 69.0883)" fill="#F1ADAA" fill-opacity="0.51"/>
<ellipse cx="0.96471" cy="1.33372" rx="0.96471" ry="1.33372" transform="matrix(0.0936933 0.995601 -0.988979 0.148055 106.058 73.7881)" fill="#F1ADAA" fill-opacity="0.51"/>
<path d="M99.5837 73.5344C100.56 74.357 100.482 75.9495 99.918 76.6531C99.3544 77.3567 98.2055 77.4786 97.5035 75.9339C95.1761 75.4761 95.819 74.3778 96.3826 73.6743C96.9461 72.9707 98.6075 72.7119 99.5837 73.5344Z" fill="#F1ADAA" fill-opacity="0.51"/>
</svg>
