<svg width="129" height="125" viewBox="0 0 129 125" fill="none" xmlns="http://www.w3.org/2000/svg">
<path d="M28.0343 2.55363C28.1209 12.213 28.776 16.3131 29.8945 17.282C25.2182 22.1119 25.0033 30.3913 24.6786 34.3041C23.5115 40.6608 26.6632 46.2293 28.0343 48.1671C30.1272 50.5522 38.6211 55.121 55.8544 54.316C73.0876 53.5111 87.5472 45.2967 87.5472 35.1204L86.35 32.5763L86.7989 31.5288L87.0988 30.6309C86.0518 29.1344 83.9561 22.4001 81.2618 17.9105C82.8752 11.8597 82.892 8.40091 79.3573 1C65.1768 2.34158 64.7308 8.51599 63.1071 10.4911C58.8637 9.77558 51.0192 10.193 47.6274 10.4911C43.8171 1.81554 32.5086 2.10643 28.0343 2.55363Z" fill="white" stroke="#8C7F7E" stroke-width="2" stroke-linecap="round" stroke-linejoin="round"/>
<path d="M49.4793 44.4747C49.0339 44.9712 48.2366 44.9009 47.885 44.3341L47.2851 43.3669C46.9009 42.7474 47.2915 41.9624 48.0202 41.9843C48.2875 41.9924 48.5747 42.0104 48.8693 42.0438C49.2275 42.0844 49.5614 42.1507 49.8564 42.225C50.5011 42.3874 50.6672 43.1503 50.2232 43.6452L49.4793 44.4747Z" fill="#F1ADAA"/>
<path d="M29.655 35.1319C30.2034 33.0059 32.3777 31.702 34.5114 32.2196L42.8178 34.2345C44.9515 34.752 46.2367 36.8951 45.6883 39.0211C45.1399 41.1471 42.9657 42.451 40.832 41.9334L32.5255 39.9185C30.3918 39.4009 29.1066 37.2579 29.655 35.1319Z" fill="#B1B2B4" fill-opacity="0.33"/>
<path d="M53.848 40.1387C53.4046 38.062 54.7233 35.9947 56.7934 35.5213L65.38 33.5577C67.4501 33.0843 69.4877 34.384 69.9311 36.4608C70.3745 38.5375 69.0558 40.6048 66.9857 41.0782L58.3992 43.0418C56.3291 43.5152 54.2914 42.2155 53.848 40.1387Z" fill="#B1B2B4" fill-opacity="0.33"/>
<path d="M32.559 38.8599C32.5051 39.1144 32.2276 39.2516 31.9927 39.1399C31.8243 39.0598 31.733 38.8746 31.7721 38.6923L32.7632 34.0722C32.8233 33.7916 33.1527 33.6663 33.3842 33.8359C33.5098 33.9279 33.5698 34.0849 33.5375 34.2372L32.559 38.8599Z" fill="white" fill-opacity="0.8"/>
<path d="M68.9422 39.3153C69.0012 39.5687 68.8078 39.8105 68.5477 39.8088C68.3613 39.8075 68.2002 39.6783 68.1584 39.4966L67.0999 34.8916C67.0356 34.6119 67.2809 34.3589 67.5624 34.4145C67.7151 34.4447 67.836 34.5616 67.8713 34.7132L68.9422 39.3153Z" fill="white" fill-opacity="0.8"/>
<path d="M31.3586 37.8908C31.3042 38.1347 31.0429 38.2704 30.8122 38.1747C30.6313 38.0997 30.5308 37.9053 30.5741 37.7143L31.2803 34.603C31.3398 34.3408 31.6377 34.2128 31.8688 34.3502C32.016 34.4376 32.0904 34.6098 32.0531 34.7769L31.3586 37.8908Z" fill="white" fill-opacity="0.8"/>
<path d="M67.7806 38.9255C67.8377 39.1687 67.6613 39.4045 67.4119 39.4186C67.2164 39.4297 67.0414 39.2983 66.9974 39.1075L66.2811 35.9985C66.2207 35.7365 66.4333 35.4918 66.7012 35.515C66.8718 35.5298 67.0136 35.6525 67.0526 35.8192L67.7806 38.9255Z" fill="white" fill-opacity="0.8"/>
<path d="M44.8419 40.0241C44.3797 40.3394 44.2527 40.9608 44.5583 41.412C44.8639 41.8632 45.4863 41.9734 45.9485 41.6581L45.3952 40.8411L44.8419 40.0241ZM53.7268 42.4146C54.1975 42.6929 54.8161 42.5336 55.1085 42.0587C55.4009 41.5839 55.2564 40.9732 54.7858 40.6948L54.2563 41.5547L53.7268 42.4146ZM45.3952 40.8411C45.9485 41.6581 45.9482 41.6584 45.9478 41.6586C45.9477 41.6587 45.9474 41.6589 45.9472 41.6591C45.9467 41.6593 45.9463 41.6596 45.9459 41.6599C45.9452 41.6604 45.9445 41.6609 45.9439 41.6612C45.9428 41.662 45.9421 41.6625 45.9417 41.6627C45.9411 41.6632 45.942 41.6625 45.9444 41.661C45.9493 41.6578 45.9605 41.6508 45.9776 41.6405C46.0118 41.6199 46.0699 41.5865 46.15 41.5454C46.3107 41.4629 46.5579 41.3503 46.8793 41.2468C47.5207 41.0403 48.4532 40.8707 49.5903 41.0435L49.7668 40.0581L49.9433 39.0728C48.4439 38.845 47.1907 39.0669 46.3053 39.352C45.8634 39.4943 45.5121 39.6526 45.265 39.7795C45.1413 39.843 45.0432 39.899 44.9723 39.9416C44.9368 39.9629 44.9081 39.9809 44.8863 39.9949C44.8754 40.0018 44.8662 40.0078 44.8588 40.0127C44.8551 40.0152 44.8519 40.0174 44.8491 40.0193C44.8476 40.0202 44.8463 40.0211 44.8452 40.0219C44.8446 40.0223 44.844 40.0227 44.8435 40.023C44.8432 40.0232 44.8428 40.0235 44.8427 40.0236C44.8423 40.0238 44.8419 40.0241 45.3952 40.8411ZM49.7668 40.0581L49.5903 41.0435C50.8122 41.2291 51.8578 41.5771 52.5982 41.8798C52.9672 42.0306 53.2571 42.1688 53.4513 42.2673C53.5483 42.3165 53.6212 42.3557 53.6679 42.3814C53.6912 42.3943 53.7079 42.4037 53.7179 42.4094C53.7228 42.4123 53.7261 42.4141 53.7276 42.415C53.7283 42.4155 53.7287 42.4156 53.7285 42.4156C53.7285 42.4155 53.7283 42.4154 53.728 42.4153C53.7279 42.4152 53.7277 42.4151 53.7275 42.415C53.7274 42.4149 53.7272 42.4148 53.7272 42.4148C53.727 42.4147 53.7268 42.4146 54.2563 41.5547C54.7858 40.6948 54.7856 40.6947 54.7854 40.6946C54.7853 40.6946 54.7851 40.6944 54.7849 40.6944C54.7846 40.6942 54.7843 40.694 54.7839 40.6938C54.7832 40.6933 54.7823 40.6928 54.7814 40.6923C54.7794 40.6911 54.7771 40.6897 54.7742 40.6881C54.7686 40.6848 54.7611 40.6805 54.7518 40.6752C54.7333 40.6646 54.7077 40.6501 54.6752 40.6322C54.6102 40.5965 54.5177 40.5469 54.3998 40.4871C54.1642 40.3676 53.826 40.2067 53.4022 40.0335C52.5569 39.688 51.3578 39.2877 49.9433 39.0728L49.7668 40.0581Z" fill="#616471"/>
<path d="M53.6621 38.0626C53.7279 38.2509 54.3963 40.8093 54.3963 40.8093C54.5974 41.585 54.7615 42.8082 54.8931 43.1849C55.0246 43.5616 56.9751 43.226 57.856 42.9964L70.3119 40.1589C70.5446 40.0749 70.764 39.9327 70.435 38.991L69.5716 34.6738" stroke="#616471" stroke-width="2" stroke-linecap="round" stroke-linejoin="round"/>
<path d="M46.0886 37.7605L44.939 42.6565C44.8935 42.9154 44.4986 43.3327 43.2832 42.9307C42.0678 42.5286 33.3606 40.5969 29.191 39.8568C28.6936 39.7835 28.3985 39.4009 28.821 37.7598L29.9311 34.0594" stroke="#616471" stroke-width="2" stroke-linecap="round" stroke-linejoin="round"/>
<line x1="28.7797" y1="37.1984" x2="24.8446" y2="34.1659" stroke="black" stroke-width="2" stroke-linejoin="round"/>
<line x1="76.1876" y1="34.5034" x2="71.2346" y2="37.5199" stroke="#616471" stroke-width="2" stroke-linecap="round" stroke-linejoin="round"/>
<path d="M46.7507 47.8044C47.411 48.2436 49.0146 48.4903 50.1223 48.0186M48.6445 45.7767L48.4866 47.9279" stroke="#8C7F7E" stroke-width="2" stroke-linecap="round" stroke-linejoin="round"/>
<path d="M43.0944 36.525C41.9955 38.2373 38.7949 39.4319 36.1864 37.7579C33.9771 36.4797 32.6018 34.0786 33.7192 31.467C34.8181 29.7547 38.514 28.3108 41.1225 29.9849C44.9397 32.1416 44.1933 34.8127 43.0944 36.525Z" fill="#C2E7F1" fill-opacity="0.5"/>
<path d="M67.7628 33.4409C67.7628 35.4755 64.6315 38.3749 61.2253 38.3749C57.8192 38.3749 55.798 37.8668 55.9214 34.9451C55.9214 32.9105 58.806 29.8638 62.2121 29.8638C67.0227 29.6172 67.7628 31.4064 67.7628 33.4409Z" fill="#C2E7F1" fill-opacity="0.5"/>
<path d="M56.538 32.7011C57.7304 31.1387 61.546 28.4826 67.2693 30.3575M56.538 38.1285C58.6349 38.7864 63.5936 39.362 66.6526 36.4016M43.8331 32.7011C42.8874 30.5219 39.6393 27.0023 34.2119 30.3575M34.2119 36.4016C35.0342 37.7173 37.7397 39.9047 41.9829 38.1285" stroke="black" stroke-width="2" stroke-linecap="round" stroke-linejoin="round"/>
<path d="M33.553 7.8386C33.5116 7.2417 34.017 6.76786 34.6105 6.84402C35.887 7.00783 37.9792 7.33508 39.3707 7.85471C40.7397 8.36594 42.1984 9.84968 43.0617 10.839C43.4758 11.3136 43.303 12.0319 42.7349 12.3041L36.7216 15.1854C36.3241 15.3758 35.8505 15.2827 35.59 14.9273C35.0412 14.1787 34.1688 12.7749 33.9178 11.1387C33.7166 9.82664 33.6093 8.64829 33.553 7.8386Z" fill="#F1ADAA" fill-opacity="0.46"/>
<path d="M74.9606 6.30173C75.4302 6.16039 75.9231 6.39812 76.0987 6.85601C76.5017 7.90715 77.1223 9.7638 76.9604 10.867C76.823 11.804 76.4424 12.9051 76.1498 13.6586C75.954 14.1628 75.3812 14.3885 74.8824 14.1792L69.2086 11.799C68.6432 11.5617 68.4268 10.8786 68.784 10.3802C69.3611 9.57501 70.2422 8.47053 71.0935 7.89391C72.0758 7.22864 73.9018 6.62043 74.9606 6.30173Z" fill="#F1ADAA" fill-opacity="0.46"/>
<path d="M64.803 31.2204C64.803 33.3323 63.9981 37.3879 61.4684 37.3879C59.9443 37.3879 58.0188 34.6891 58.0188 32.5772C58.0188 30.4654 59.9443 29.7403 61.4684 29.7403C62.9925 29.7403 64.803 29.1086 64.803 31.2204Z" fill="black"/>
<path d="M42.2779 31.8623C41.8147 33.9227 40.2555 37.729 37.6717 37.1481C35.6916 36.7029 34.7349 33.2815 35.1982 31.2211C35.6614 29.1607 37.7791 28.9126 39.2661 29.2469C40.7531 29.5812 42.7412 29.8019 42.2779 31.8623Z" fill="black"/>
<path d="M60.9822 31.0426C60.9997 30.7467 61.2765 30.5358 61.5664 30.5975C61.8013 30.6475 61.964 30.8621 61.9489 31.1017L61.7493 34.2524C61.7294 34.5673 61.4146 34.7766 61.1165 34.6731C60.9146 34.603 60.7839 34.4074 60.7965 34.1941L60.9822 31.0426Z" fill="white"/>
<path d="M38.4995 30.0397C38.5723 29.7524 38.8839 29.5973 39.157 29.7126C39.3783 29.8059 39.4977 30.0473 39.4377 30.2798L38.6484 33.3364C38.5695 33.642 38.221 33.7883 37.9476 33.6305C37.7626 33.5237 37.6711 33.3069 37.7236 33.0998L38.4995 30.0397Z" fill="white"/>
<path d="M39.5162 13.4579L38.7761 11.2376L40.7497 12.8412V11.2376L42.2299 11.9777M69.6133 11.9777L71.3402 10.2509V12.4711H72.5736V13.4579" stroke="#8C7F7E" stroke-width="2" stroke-linecap="round" stroke-linejoin="round"/>
<path d="M34.059 51.8605C34.7852 42.4461 27.1945 28.4289 23.1904 21.2301L18.6265 22.4636L18.0056 21.2301C16.2094 21.6256 12.2906 24.124 12.8295 24.3138C13.503 24.5511 21.0365 41.6555 23.6186 47.7073C26.2006 53.7591 29.9053 54.827 32.8241 55.895C35.743 56.9629 39.1109 57.6749 47.0816 53.9964C53.4582 51.0536 84.3017 46.2854 99.4199 43.5562L98.8031 39.4857L97.4463 36.909L94.856 37.7588L93.3758 34.7984C82.1511 35.2918 48.6907 46.3229 34.059 51.8605Z" fill="white" stroke="#DADBDE" stroke-width="2" stroke-linecap="round" stroke-linejoin="round"/>
<path d="M20.9713 23.2025C24.0806 29.6166 31.5161 43.4563 31.7027 49.4757M37.3767 53.6696C54.3221 48.6945 87.4582 39.1391 94.7338 37.7576M96.0906 41.2114C79.1453 44.9941 46.3246 51.9674 41.9406 54.533M18.6277 22.4624C23.0973 30.5212 30.1261 45.5779 30.5925 53.6696M15.9138 24.3126C19.9947 33.1937 27.8515 48.8097 28.5978 53.0529" stroke="#DADBDE" stroke-width="2" stroke-linecap="round"/>
<path d="M107.139 84.4321C101.976 87.1967 95.6924 85.5366 93.196 84.361L93.1257 92.1684C96.5906 93.3575 105.37 95.0169 112.766 92.1415C120.163 89.2662 123.49 82.4374 124.229 79.3825C125.952 74.4527 127.34 63.7922 119.103 60.5879C110.866 57.3837 109.125 62.8923 109.284 66.0472C111.298 71.4093 117.248 68.1469 117.269 72.14C117.291 76.1331 113.593 80.9763 107.139 84.4321Z" fill="white" stroke="#8C7F7E" stroke-width="2" stroke-linecap="round" stroke-linejoin="round"/>
<path d="M9.74087 28.7394C8.94434 22.2654 11.2528 23.0677 12.5066 24.2781C15.1617 29.0506 21.0692 40.4838 23.4588 48.0367C26.4458 57.4779 41.1595 57.4779 44.3678 54.7804C46.9343 52.6224 83.1248 46.4113 100.899 43.5755V109.249L46.4697 120.246C42.5977 123.255 31.756 124.811 25.5608 120.246C20.6046 116.594 12.2115 96.2454 8.63452 86.5276C9.33519 69.9623 10.5374 35.2133 9.74087 28.7394Z" fill="#535DDF" stroke="#224487" stroke-width="2" stroke-linecap="round" stroke-linejoin="round"/>
<path d="M26.3992 58.1093L23.5735 110.126M45.5182 58.1093L44.5314 115.466" stroke="#224487" stroke-width="2" stroke-linecap="round"/>
<path d="M57.2358 66.9502C57.2358 66.9502 60.4429 64.8533 62.7865 64.8533C65.1302 64.8533 64.6368 63.3731 68.0905 63.0031C71.5443 62.633 72.161 65.2233 74.1346 64.8533C76.1082 64.4833 78.5751 61.7696 80.7954 61.0295C83.0157 60.2894 87.3082 61.0295 87.7029 61.0295" stroke="#224487" stroke-width="2" stroke-linecap="round"/>
<path d="M57.9744 71.8015C57.9744 71.8015 60.5452 70.146 62.4239 70.146C64.3026 70.146 63.9071 68.9775 66.6757 68.6853C69.4443 68.3932 69.9387 70.4382 71.5207 70.146C73.1028 69.8539 75.0804 67.7115 76.8602 67.1272C78.64 66.543 82.081 67.1272 82.3974 67.1272" stroke="#224487" stroke-width="2" stroke-linecap="round"/>
<path d="M92.218 65.3404C90.6898 61.6089 96.0092 59.8033 97.9047 59.3544C107.514 57.6986 106.565 69.9839 103.56 71.1864C102.063 71.7852 100.787 72.0279 100.149 72.2242C96.1985 73.4214 94.5126 71.027 94.1635 69.6801C91.4099 69.0815 91.7192 66.5376 92.218 65.3404Z" fill="white"/>
<path d="M92.218 65.3404C90.6898 61.6089 96.0092 59.8033 97.9047 59.3544C107.514 57.6986 106.565 69.9839 103.56 71.1864C102.063 71.7852 100.787 72.0279 100.149 72.2242C96.1985 73.4214 94.5126 71.027 94.1635 69.6801M92.218 65.3404C92.8166 64.8415 94.2533 63.8138 95.211 63.6941M92.218 65.3404C91.7192 66.5376 91.7192 69.0815 94.1635 69.6801M94.1635 69.6801C94.6123 69.1314 95.7494 68.1238 96.7074 68.4829" stroke="#8C7F7E" stroke-width="2" stroke-linecap="round" stroke-linejoin="round"/>
<path d="M12.9499 64.8375C12.1228 69.0907 7.03738 67.3618 5.45577 66.7556C-2.19475 63.1828 5.74401 53.7715 8.54267 54.3375C9.93613 54.6193 10.9655 55.0753 11.5246 55.2429C14.9761 56.2959 15.2639 59.5128 14.1714 60.3486C15.7277 62.2367 13.7685 64.8378 12.9499 64.8375Z" fill="white"/>
<path d="M12.9499 64.8375C12.1228 69.0907 7.03738 67.3618 5.45577 66.7556C-2.19475 63.1828 5.74401 53.7715 8.54267 54.3375C9.93613 54.6193 10.9655 55.0753 11.5246 55.2429C14.9761 56.2959 15.2639 59.5128 14.1714 60.3486M14.1714 60.3486C15.7277 62.2367 13.7685 64.8378 12.9499 64.8375C12.2388 64.9337 10.6327 65.028 9.89703 64.6354M14.1714 60.3486C13.5347 60.5614 12.7199 60.71 11.822 60.1114" stroke="#8C7F7E" stroke-width="2" stroke-linecap="round" stroke-linejoin="round"/>
</svg>
