<svg width="89" height="40" viewBox="0 0 89 40" fill="none" xmlns="http://www.w3.org/2000/svg" role="img" aria-label="Booktop">
  <path d="M4.33545 19.2226L32.7167 19.6299V18.0487V17.2582L32.7151 16.3266L32.7167 15.2818L32.7151 14.5165V13.7925L32.7167 12.9101L32.7151 11.9825L32.7167 11.329V10.1432V9.35265L32.7151 8.72446V8.00045L32.7167 6.98098L32.7151 6.91444L32.5398 6.19043L4.7057 6.76249L4.33545 19.2226Z" fill="#E2E8EE" stroke="#E2E8EE"/>
  <path d="M35.4467 33.6627L35.6882 21.3125H6.12465L6.11816 22.2043V22.9554V23.7064L6.12465 24.5044L6.11816 25.2085V25.9595L6.12496 26.4993L6.11816 27.4615L6.12496 28.0952L6.11816 28.9636V29.7146L6.12496 30.8881L6.11816 31.5922V32.3432V34.08L35.4467 33.6627Z" fill="#E2E8EE" stroke="#E2E8EE"/>
  <path d="M34.6523 5.54802C24.8465 5.54784 4.94841 1.87432 3.27896 10.6914C1.74123 18.8129 6.66664 21.0667 15.1742 21.0667C20.4818 20.6993 31.5251 20.0453 33.5873 20.9779C38.4616 23.1822 39.2011 34.5712 28.4971 35.0271C20.6768 35.3601 7.44614 35.1677 3.27896 35.0271" stroke="#535DDF" stroke-width="4"/>
  <line x1="15.478" y1="12.0282" x2="31.0758" y2="12.0282" stroke="#B3B7BC" stroke-opacity="0.4"/>
  <line x1="16.6318" y1="26.722" x2="32.2296" y2="26.722" stroke="#B3B7BC" stroke-opacity="0.4"/>
  <line x1="-0.5" y1="-0.5" x2="24.1964" y2="-0.5" transform="matrix(1 2.98394e-05 -2.33457e-05 1 6.52393 15.4666)" stroke="#B3B7BC" stroke-opacity="0.4"/>
  <line x1="-0.5" y1="-0.5" x2="24.1964" y2="-0.5" transform="matrix(1 2.98394e-05 -2.33457e-05 1 7.67969 30.1604)" stroke="#B3B7BC" stroke-opacity="0.4"/>
  <path d="M47.7205 35V23.2H43.0805V21H54.9605V23.2H50.3205V35H47.7205ZM62.9564 35.2C61.8631 35.2 60.8564 35.02 59.9364 34.66C59.0164 34.3 58.2164 33.8 57.5364 33.16C56.8564 32.5067 56.3298 31.7467 55.9564 30.88C55.5831 30 55.3964 29.04 55.3964 28C55.3964 26.96 55.5831 26.0067 55.9564 25.14C56.3298 24.26 56.8564 23.5 57.5364 22.86C58.2164 22.2067 59.0164 21.7 59.9364 21.34C60.8564 20.98 61.8564 20.8 62.9364 20.8C64.0298 20.8 65.0298 20.98 65.9364 21.34C66.8564 21.7 67.6564 22.2067 68.3364 22.86C69.0164 23.5 69.5431 24.26 69.9164 25.14C70.2898 26.0067 70.4764 26.96 70.4764 28C70.4764 29.04 70.2898 30 69.9164 30.88C69.5431 31.76 69.0164 32.52 68.3364 33.16C67.6564 33.8 66.8564 34.3 65.9364 34.66C65.0298 35.02 64.0364 35.2 62.9564 35.2ZM62.9364 32.92C63.6431 32.92 64.2964 32.8 64.8964 32.56C65.4964 32.32 66.0164 31.98 66.4564 31.54C66.8964 31.0867 67.2364 30.5667 67.4764 29.98C67.7298 29.38 67.8564 28.72 67.8564 28C67.8564 27.28 67.7298 26.6267 67.4764 26.04C67.2364 25.44 66.8964 24.92 66.4564 24.48C66.0164 24.0267 65.4964 23.68 64.8964 23.44C64.2964 23.2 63.6431 23.08 62.9364 23.08C62.2298 23.08 61.5764 23.2 60.9764 23.44C60.3898 23.68 59.8698 24.0267 59.4164 24.48C58.9764 24.92 58.6298 25.44 58.3764 26.04C58.1364 26.6267 58.0164 27.28 58.0164 28C58.0164 28.7067 58.1364 29.36 58.3764 29.96C58.6298 30.56 58.9764 31.0867 59.4164 31.54C59.8564 31.98 60.3764 32.32 60.9764 32.56C61.5764 32.8 62.2298 32.92 62.9364 32.92ZM72.9124 35V21H78.6724C79.9124 21 80.9724 21.2 81.8524 21.6C82.7457 22 83.4324 22.5733 83.9124 23.32C84.3924 24.0667 84.6324 24.9533 84.6324 25.98C84.6324 27.0067 84.3924 27.8933 83.9124 28.64C83.4324 29.3867 82.7457 29.96 81.8524 30.36C80.9724 30.76 79.9124 30.96 78.6724 30.96H74.3524L75.5124 29.74V35H72.9124ZM75.5124 30.02L74.3524 28.76H78.5524C79.699 28.76 80.559 28.52 81.1324 28.04C81.719 27.5467 82.0124 26.86 82.0124 25.98C82.0124 25.0867 81.719 24.4 81.1324 23.92C80.559 23.44 79.699 23.2 78.5524 23.2H74.3524L75.5124 21.92V30.02Z" fill="#535DDF"/>
  <path d="M38.7994 17V5.8H44.0474C45.3914 5.8 46.4154 6.06667 47.1194 6.6C47.8234 7.12267 48.1754 7.82667 48.1754 8.712C48.1754 9.30933 48.0367 9.82133 47.7594 10.248C47.4821 10.664 47.1087 10.9893 46.6394 11.224C46.1807 11.448 45.6794 11.56 45.1354 11.56L45.4234 10.984C46.0527 10.984 46.6181 11.1013 47.1194 11.336C47.6207 11.56 48.0154 11.8907 48.3034 12.328C48.6021 12.7653 48.7514 13.3093 48.7514 13.96C48.7514 14.92 48.3834 15.6667 47.6474 16.2C46.9114 16.7333 45.8181 17 44.3674 17H38.7994ZM40.8794 15.368H44.2394C45.0181 15.368 45.6154 15.24 46.0314 14.984C46.4474 14.728 46.6554 14.3173 46.6554 13.752C46.6554 13.1973 46.4474 12.792 46.0314 12.536C45.6154 12.2693 45.0181 12.136 44.2394 12.136H40.7194V10.52H43.8234C44.5487 10.52 45.1034 10.392 45.4874 10.136C45.8821 9.88 46.0794 9.496 46.0794 8.984C46.0794 8.46133 45.8821 8.072 45.4874 7.816C45.1034 7.56 44.5487 7.432 43.8234 7.432H40.8794V15.368ZM55.8993 17.16C55.0246 17.16 54.2193 17.016 53.4833 16.728C52.7473 16.44 52.1073 16.04 51.5633 15.528C51.0193 15.0053 50.598 14.3973 50.2993 13.704C50.0006 13 49.8513 12.232 49.8513 11.4C49.8513 10.568 50.0006 9.80533 50.2993 9.112C50.598 8.408 51.0193 7.8 51.5633 7.288C52.1073 6.76533 52.7473 6.36 53.4833 6.072C54.2193 5.784 55.0193 5.64 55.8833 5.64C56.758 5.64 57.558 5.784 58.2833 6.072C59.0193 6.36 59.6593 6.76533 60.2033 7.288C60.7473 7.8 61.1686 8.408 61.4673 9.112C61.766 9.80533 61.9153 10.568 61.9153 11.4C61.9153 12.232 61.766 13 61.4673 13.704C61.1686 14.408 60.7473 15.016 60.2033 15.528C59.6593 16.04 59.0193 16.44 58.2833 16.728C57.558 17.016 56.7633 17.16 55.8993 17.16ZM55.8833 15.336C56.4486 15.336 56.9713 15.24 57.4513 15.048C57.9313 14.856 58.3473 14.584 58.6993 14.232C59.0513 13.8693 59.3233 13.4533 59.5153 12.984C59.718 12.504 59.8193 11.976 59.8193 11.4C59.8193 10.824 59.718 10.3013 59.5153 9.832C59.3233 9.352 59.0513 8.936 58.6993 8.584C58.3473 8.22133 57.9313 7.944 57.4513 7.752C56.9713 7.56 56.4486 7.464 55.8833 7.464C55.318 7.464 54.7953 7.56 54.3153 7.752C53.846 7.944 53.43 8.22133 53.0673 8.584C52.7153 8.936 52.438 9.352 52.2353 9.832C52.0433 10.3013 51.9473 10.824 51.9473 11.4C51.9473 11.9653 52.0433 12.488 52.2353 12.968C52.438 13.448 52.7153 13.8693 53.0673 14.232C53.4193 14.584 53.8353 14.856 54.3153 15.048C54.7953 15.24 55.318 15.336 55.8833 15.336ZM69.048 17.16C68.1734 17.16 67.368 17.016 66.632 16.728C65.896 16.44 65.256 16.04 64.712 15.528C64.168 15.0053 63.7467 14.3973 63.448 13.704C63.1494 13 63 12.232 63 11.4C63 10.568 63.1494 9.80533 63.448 9.112C63.7467 8.408 64.168 7.8 64.712 7.288C65.256 6.76533 65.896 6.36 66.632 6.072C67.368 5.784 68.168 5.64 69.032 5.64C69.9067 5.64 70.7067 5.784 71.432 6.072C72.168 6.36 72.808 6.76533 73.352 7.288C73.896 7.8 74.3174 8.408 74.616 9.112C74.9147 9.80533 75.064 10.568 75.064 11.4C75.064 12.232 74.9147 13 74.616 13.704C74.3174 14.408 73.896 15.016 73.352 15.528C72.808 16.04 72.168 16.44 71.432 16.728C70.7067 17.016 69.912 17.16 69.048 17.16ZM69.032 15.336C69.5974 15.336 70.12 15.24 70.6 15.048C71.08 14.856 71.496 14.584 71.848 14.232C72.2 13.8693 72.472 13.4533 72.664 12.984C72.8667 12.504 72.968 11.976 72.968 11.4C72.968 10.824 72.8667 10.3013 72.664 9.832C72.472 9.352 72.2 8.936 71.848 8.584C71.496 8.22133 71.08 7.944 70.6 7.752C70.12 7.56 69.5974 7.464 69.032 7.464C68.4667 7.464 67.944 7.56 67.464 7.752C66.9947 7.944 66.5787 8.22133 66.216 8.584C65.864 8.936 65.5867 9.352 65.384 9.832C65.192 10.3013 65.096 10.824 65.096 11.4C65.096 11.9653 65.192 12.488 65.384 12.968C65.5867 13.448 65.864 13.8693 66.216 14.232C66.568 14.584 66.984 14.856 67.464 15.048C67.944 15.24 68.4667 15.336 69.032 15.336ZM78.8048 14.36L78.6928 11.896L84.5648 5.8H86.9008L82.0208 10.984L80.8688 12.248L78.8048 14.36ZM76.9488 17V5.8H79.0288V17H76.9488ZM84.7568 17L80.4688 11.896L81.8448 10.376L87.1888 17H84.7568Z" fill="#ECECEC"/>
</svg>
