<svg width="85" height="98" viewBox="0 0 85 98" fill="none" xmlns="http://www.w3.org/2000/svg">
<path d="M4.70465 5.71312C3.68816 14.15 7.41531 22.0194 9.40595 24.8995C8.21999 28.0337 5.54313 35.4455 5.84808 40.528C6.44103 40.7398 8.38932 41.0363 9.02463 41.0363C9.40581 41.0363 7.322 44.2382 7.62694 45.8646C11.6929 47.94 22.6203 51.7857 33.8017 50.5659C34.8182 50.5659 43.3737 50.3118 47.5244 50.1847C53.1152 50.4897 65.4402 43.1963 70.9039 39.5115C70.7793 38.3908 70.0446 37.0699 69.4648 36.1561C69.1115 35.5993 69.3829 34.9353 70.0067 34.7216C70.8879 34.4196 71.5269 34.0688 71.7933 33.9208C71.4883 28.3301 67.7697 22.5276 65.9484 20.3252C69.8111 13.0064 69.6756 4.40008 69.125 1.01178C61.298 -1.12287 50.9551 3.93421 46.7621 6.72957C35.7839 4.59493 27.5333 7.02608 24.7803 8.50848C15.4286 3.73095 7.49997 4.65427 4.70465 5.71312Z" fill="white"/>
<path d="M24.7803 8.50848C15.4286 3.73095 7.49997 4.65427 4.70465 5.71312C3.68816 14.15 7.41531 22.0194 9.40595 24.8995C8.21999 28.0337 5.54313 35.4455 5.84808 40.528C6.44103 40.7398 8.38932 41.0363 9.02463 41.0363C9.40581 41.0363 7.322 44.2382 7.62694 45.8646C11.6929 47.94 22.6203 51.7857 33.8017 50.5659C34.8182 50.5659 43.3737 50.3118 47.5244 50.1847C53.1152 50.4897 65.4402 43.1963 70.9039 39.5115C70.7793 38.3908 70.0446 37.0699 69.4648 36.1561C69.1115 35.5993 69.3829 34.9353 70.0067 34.7216C70.8879 34.4196 71.5269 34.0688 71.7933 33.9208C71.4883 28.3301 67.7697 22.5276 65.9484 20.3252C69.8111 13.0064 69.6756 4.40008 69.125 1.01178C61.298 -1.12287 50.9551 3.93421 46.7621 6.72957M46.7621 6.72957C35.7839 4.59493 27.5333 7.02608 24.7803 8.50848C24.3737 8.71182 23.7638 9.18613 23.5097 9.39788M46.7621 6.72957C46.5588 6.93287 46.0844 7.49194 45.8726 7.74607" stroke="#8C7F7E" stroke-linecap="round"/>
<path d="M28.8385 32.5643C28.4137 34.6306 25.6548 36.9352 22.603 36.3079C19.5512 35.6806 16.862 33.5756 17.4131 30.8943C17.8378 28.828 22.4116 27.8879 25.4634 28.5152C28.2777 29.7703 29.2632 30.498 28.8385 32.5643Z" fill="#78C4DA" fill-opacity="0.5"/>
<path d="M51.9604 31.756C50.6897 33.5349 48.3941 35.8281 45.3422 35.2008C42.2904 34.5735 39.6012 32.4685 40.1523 29.7872C40.577 27.7209 46.4943 26.8086 49.5462 27.4359C52.3604 28.691 52.9784 30.7842 51.9604 31.756Z" fill="#78C4DA" fill-opacity="0.5"/>
<path d="M16.9392 31.1077C18.5104 29.5006 21.3413 25.3829 29.1969 30.8202M17.4718 33.2496C17.6912 34.2966 24.5943 39.8343 28.9626 33.3851" stroke="black"/>
<path d="M39.6805 30.0001C41.2517 28.3929 46.8785 24.386 52.7239 29.3413M40.2131 32.1419C40.4325 33.1889 47.3356 38.7267 51.7039 32.2774" stroke="black"/>
<path d="M26.1654 30.4002C26.0271 32.4632 24.9838 34.8689 23.0342 34.673C20.7214 34.4405 20.4192 31.7688 20.5574 29.7058C20.6957 27.6428 22.4001 28.4288 23.4136 28.5013C24.4271 28.5739 26.3036 28.3371 26.1654 30.4002Z" fill="black"/>
<path d="M49.3822 29.2002C49.2392 31.3346 48.1525 33.823 46.1192 33.6191C43.707 33.3773 43.3902 30.6129 43.5332 28.4786C43.6762 26.3442 45.4543 27.1584 46.5113 27.2341C47.5683 27.3098 49.5252 27.0659 49.3822 29.2002Z" fill="black"/>
<path d="M21.5837 29.4761C21.5941 29.2753 21.7809 29.131 21.9778 29.1714C22.1373 29.2042 22.2487 29.349 22.2395 29.5116L22.1191 31.6491C22.1071 31.8628 21.8947 32.0062 21.692 31.9374C21.5548 31.8908 21.4652 31.7588 21.4727 31.6141L21.5837 29.4761Z" fill="white"/>
<path d="M47.9193 28.3264C47.9297 28.1256 48.1165 27.9813 48.3134 28.0217C48.4729 28.0545 48.5843 28.1993 48.5751 28.3619L48.4547 30.4994C48.4427 30.7131 48.2303 30.8565 48.0276 30.7877C47.8904 30.7412 47.8008 30.6091 47.8083 30.4644L47.9193 28.3264Z" fill="white"/>
<path d="M13.6908 35.0285C13.6759 32.9496 15.3488 31.228 17.4272 31.183L26.4465 30.988C28.525 30.943 30.2219 32.5918 30.2368 34.6707C30.2517 36.7495 28.5789 38.4712 26.5004 38.5161L17.4811 38.7112C15.4027 38.7561 13.7057 37.1073 13.6908 35.0285Z" fill="#B1B2B4" fill-opacity="0.33"/>
<path d="M16.3853 36.8921C16.3905 37.1233 16.1782 37.2986 15.9521 37.2497C15.7901 37.2147 15.6733 37.0729 15.67 36.9071L15.5872 32.7061C15.5822 32.4509 15.8418 32.2754 16.0767 32.3751C16.2041 32.4291 16.288 32.5528 16.2911 32.6912L16.3853 36.8921Z" fill="white" fill-opacity="0.8"/>
<path d="M15.2499 36.3543C15.2524 36.561 15.0657 36.7186 14.8623 36.6816C14.7071 36.6533 14.5938 36.5188 14.5925 36.361L14.5672 33.3815C14.5653 33.1572 14.7864 32.999 14.998 33.0732C15.1264 33.1183 15.213 33.2388 15.2146 33.3749L15.2499 36.3543Z" fill="white" fill-opacity="0.8"/>
<path d="M29.8365 34.7713C29.6095 34.9344 29.5526 35.2473 29.7095 35.4703C29.8665 35.6933 30.1778 35.742 30.4049 35.5789L30.1207 35.1751L29.8365 34.7713ZM38.106 35.6031C38.3383 35.7461 38.6475 35.6704 38.7966 35.4341C38.9457 35.1977 38.8782 34.8902 38.6459 34.7472L38.376 35.1751L38.106 35.6031ZM30.1207 35.1751C30.4049 35.5789 30.4046 35.5791 30.4044 35.5792C30.4044 35.5793 30.4042 35.5794 30.404 35.5795C30.4038 35.5797 30.4035 35.5799 30.4033 35.58C30.4029 35.5804 30.4025 35.5806 30.4022 35.5808C30.4016 35.5812 30.4013 35.5815 30.4013 35.5814C30.4013 35.5814 30.4025 35.5806 30.405 35.579C30.4098 35.5758 30.4194 35.5695 30.434 35.5605C30.4631 35.5425 30.5118 35.5139 30.5808 35.478C30.7186 35.4064 30.9377 35.3058 31.2432 35.204C31.8533 35.0007 32.8134 34.7911 34.1654 34.8024L34.1829 34.3023L34.2004 33.8021C32.739 33.7898 31.668 34.0166 30.9503 34.2557C30.5919 34.375 30.323 34.4971 30.1388 34.5928C30.0467 34.6406 29.9759 34.6819 29.9257 34.7128C29.9006 34.7283 29.8807 34.7413 29.8659 34.7512C29.8585 34.7561 29.8523 34.7603 29.8474 34.7637C29.845 34.7654 29.8429 34.7669 29.841 34.7681C29.8401 34.7688 29.8393 34.7694 29.8386 34.7699C29.8382 34.7702 29.8378 34.7704 29.8375 34.7707C29.8373 34.7708 29.8371 34.771 29.837 34.771C29.8368 34.7712 29.8365 34.7713 30.1207 35.1751ZM34.1829 34.3023L34.1654 34.8024C35.5219 34.8139 36.5226 35.0241 37.1755 35.2259C37.5022 35.3268 37.7425 35.4259 37.8973 35.4973C37.9747 35.533 38.0307 35.5618 38.0654 35.5805C38.0828 35.5899 38.0949 35.5967 38.1016 35.6006C38.105 35.6026 38.1071 35.6038 38.1078 35.6042C38.1081 35.6044 38.1082 35.6045 38.1079 35.6043C38.1077 35.6042 38.1075 35.604 38.1072 35.6038C38.107 35.6038 38.1069 35.6036 38.1067 35.6035C38.1066 35.6035 38.1064 35.6034 38.1063 35.6033C38.1062 35.6032 38.106 35.6031 38.376 35.1751C38.6459 34.7472 38.6457 34.7471 38.6456 34.747C38.6455 34.7469 38.6453 34.7468 38.6451 34.7467C38.6449 34.7465 38.6446 34.7463 38.6442 34.7461C38.6436 34.7457 38.6428 34.7453 38.642 34.7448C38.6404 34.7438 38.6384 34.7426 38.6361 34.7412C38.6314 34.7384 38.6253 34.7349 38.6179 34.7306C38.6031 34.722 38.5828 34.7106 38.5569 34.6967C38.5053 34.6689 38.4315 34.6312 38.3356 34.5869C38.1437 34.4983 37.8633 34.3836 37.4934 34.2693C36.7532 34.0406 35.6573 33.8144 34.2004 33.8021L34.1829 34.3023Z" fill="#616471"/>
<path d="M30.2498 32.3862L30.1549 37.7815C30.1675 38.0402 30.1052 38.4909 28.7613 38.3463C27.4175 38.2017 18.4796 38.448 14.0162 38.5684C13.4872 38.5973 13.4431 38.654 13.5011 36.9871L13.5511 33.0331" stroke="#616471" stroke-linecap="round"/>
<path d="M13.0902 35.066L10.5494 33.6682" stroke="#616471" stroke-linecap="round"/>
<path d="M58.6577 30.6503L55.1469 33.6692" stroke="#616471" stroke-linecap="round"/>
<path d="M38.5859 34.4332C38.5473 32.3547 40.2003 30.614 42.2781 30.5453L51.2946 30.2473C53.3724 30.1786 55.0881 31.8079 55.1267 33.8865C55.1653 35.965 53.5123 37.7057 51.4345 37.7743L42.4179 38.0724C40.3402 38.141 38.6245 36.5117 38.5859 34.4332Z" fill="#B1B2B4" fill-opacity="0.33"/>
<path d="M53.8569 35.8974C53.8471 36.1285 53.6239 36.2898 53.4015 36.2264C53.242 36.181 53.1347 36.032 53.1421 35.8663L53.3304 31.6687C53.3418 31.4137 53.6122 31.2553 53.8402 31.3699C53.9638 31.4321 54.0396 31.561 54.0338 31.6993L53.8569 35.8974Z" fill="white" fill-opacity="0.8"/>
<path d="M52.7886 35.4214C52.7823 35.6281 52.5892 35.7777 52.3875 35.7322C52.2336 35.6974 52.1261 35.5582 52.1314 35.4005L52.2314 32.4225C52.2389 32.1984 52.4665 32.0496 52.6748 32.1327C52.8012 32.1831 52.8826 32.3071 52.8785 32.4432L52.7886 35.4214Z" fill="white" fill-opacity="0.8"/>
<path d="M54.9602 31.571L54.9846 36.3125C55.0067 36.5706 55.1621 37.5455 53.8139 37.4502C52.4656 37.3549 43.961 37.7779 39.505 38.0615C38.9773 38.1097 38.4719 37.9137 38.4688 36.2458L38.467 32.0588" stroke="#616471" stroke-linecap="round"/>
<path d="M31.8007 44.0699C33.8981 44.539 35.0029 44.5574 36.767 43.8334M34.2885 41.323L34.3875 44.0401" stroke="#8C7F7E" stroke-linecap="round"/>
<path d="M35.0962 39.744C34.7004 40.2808 33.8999 40.287 33.4958 39.7564L32.6795 38.6846C32.2379 38.1046 32.5516 37.2857 33.2787 37.233C33.5817 37.2111 33.9123 37.1985 34.2543 37.2044C34.6609 37.2114 35.0414 37.2521 35.3743 37.3056C36.0308 37.411 36.2683 38.1546 35.8737 38.6897L35.0962 39.744Z" fill="#DC9895"/>
<path d="M61.8721 6.29688C62.5013 6.13116 63.1052 6.61095 63.0879 7.26138C63.0603 8.30541 63.0035 9.78869 62.8897 10.9287C62.7764 12.0632 62.32 13.4881 61.9546 14.4894C61.7263 15.115 60.956 15.3042 60.4423 14.8803L54.9376 10.3377C54.4078 9.90053 54.4709 9.08001 55.0786 8.75982C55.892 8.33126 57.0156 7.78865 58.1485 7.39922C59.3978 6.96977 60.8598 6.56351 61.8721 6.29688Z" fill="#F1ADAA" fill-opacity="0.46"/>
<path d="M9.21701 10.6851C9.12657 10.0471 9.66882 9.51222 10.3072 9.60017C11.3949 9.74999 12.9498 9.97885 13.9516 10.1898C14.9317 10.3962 16.3465 11.0223 17.3513 11.506C17.9603 11.7992 18.0761 12.6006 17.5921 13.0726L12.5 18.0381C12.0101 18.5158 11.2069 18.3667 10.9569 17.7297C10.6355 16.9105 10.2338 15.7699 9.93139 14.5227C9.5941 13.1318 9.35805 11.6802 9.21701 10.6851Z" fill="#F1ADAA" fill-opacity="0.46"/>
<path d="M14.488 16.1324L14.1068 14.6076H15.7586L14.9962 12.4476L18.0457 12.9558M54.8937 10.5416L57.3079 9.65219L56.7996 11.8122H58.3244L58.0703 13.337" stroke="#8C7F7E" stroke-linecap="round"/>
<path d="M63.2262 65.3481C66.1518 57.173 61.1794 49.8521 58.0245 47.0049C49.9938 51.3758 29.8589 50.605 20.7953 49.6732C20.3717 52.2568 19.5755 57.7035 19.7788 58.8217C20.0329 60.2194 14.0611 56.0263 13.5529 56.1534C9.99513 51.6808 6.56445 55.6451 5.29383 58.1864C4.4891 60.3888 4.22651 65.3781 9.61394 67.716C11.1386 68.7749 15.306 70.486 19.7788 68.8596C19.5247 70.0032 19.0675 72.4427 19.2708 73.0526C17.6614 72.8832 13.7563 73.2559 11.0118 76.1021C10.0376 74.9586 7.25073 73.0781 3.89629 74.7045C3.46575 74.9132 3.08642 75.1688 2.75287 75.4602C0.487725 77.4388 0.334254 81.0644 0.592679 82.8364C1.31274 85.9706 3.97267 92.4169 8.85185 93.1285C12.2729 93.6274 13.7701 92.7395 14.3155 91.7701C18.6356 91.3758 27.53 90.4093 28.5465 89.6978C29.0845 89.9284 31.9772 90.5872 32.7395 90.5872C33.7166 93.9483 37.045 99.1775 42.9045 95.4128C46.6316 95.1173 54.7467 94.0687 57.3896 92.239C60.6932 89.9519 62.8532 87.6648 63.4886 86.7753C64.1239 85.8859 78.6089 88.8083 82.802 78.0081C83.4797 76.7374 84.7588 73.0272 84.4538 68.3513C84.1488 63.6755 80.176 60.4735 78.2278 59.457C76.576 58.5252 72.7895 57.4748 70.8582 60.7276C68.9268 63.9804 72.2558 66.0642 74.1618 66.6995C76.3642 68.1819 79.7017 72.214 75.4324 76.4833C71.1631 80.7526 66.6225 81.227 64.8858 80.9305C66.2136 76.6612 64.3326 68.7634 63.2262 65.3481Z" fill="white"/>
<path d="M62.0905 67.8431C62.5559 67.0052 62.9312 66.1723 63.2262 65.3481M63.2262 65.3481C66.1518 57.173 61.1794 49.8521 58.0245 47.0049C49.9938 51.3758 29.8589 50.605 20.7953 49.6732C20.3717 52.2568 19.5755 57.7035 19.7788 58.8217C20.0329 60.2194 14.0611 56.0263 13.5529 56.1534M63.2262 65.3481C64.3326 68.7634 66.2136 76.6612 64.8858 80.9305C66.6225 81.227 71.1631 80.7526 75.4324 76.4833C79.7017 72.214 76.3642 68.1819 74.1618 66.6995C72.2558 66.0642 68.9268 63.9804 70.8582 60.7276C72.7895 57.4748 76.5759 58.5252 78.2278 59.457C80.176 60.4735 84.1488 63.6755 84.4538 68.3513C84.7587 73.0272 83.4797 76.7374 82.802 78.0081C78.6089 88.8083 64.1239 85.8859 63.4886 86.7753C62.8532 87.6648 60.6932 89.9519 57.3896 92.239C54.7467 94.0687 46.6316 95.1173 42.9045 95.4128M13.5529 56.1534C9.99513 51.6808 6.56445 55.6451 5.29383 58.1864C4.4891 60.3888 4.22651 65.3781 9.61394 67.716C11.1386 68.7749 15.306 70.486 19.7788 68.8596C19.5248 70.0032 19.0675 72.4427 19.2708 73.0526M13.5529 56.1534C13.6377 56.831 13.731 58.2372 13.4261 58.4405M19.2708 73.0526C19.5249 73.095 20.1348 73.2559 20.5414 73.5609M19.2708 73.0526C17.6614 72.8832 13.7563 73.2559 11.0118 76.1021M2.75287 75.4602C3.08642 75.1688 3.46575 74.9132 3.89629 74.7045C7.25073 73.0781 10.0376 74.9586 11.0118 76.1021C11.6217 76.3054 12.8753 79.4057 13.426 80.9305M2.75287 75.4602C0.487725 77.4388 0.334254 81.0644 0.592679 82.8364C1.31274 85.9706 3.97267 92.4169 8.85185 93.1285C12.2729 93.6274 13.7701 92.7395 14.3155 91.7701C14.548 91.3569 14.6076 90.929 14.5696 90.5872M14.3155 91.7701C18.6356 91.3758 27.53 90.4093 28.5465 89.6978M32.7395 90.5872C31.9772 90.5872 29.0845 89.9284 28.5465 89.6978C27.657 89.3166 26.1323 88.0883 25.3699 87.5377M32.7395 90.5872C33.7166 93.9483 37.045 99.1775 42.9045 95.4128M32.7395 90.5872C31.8112 86.8335 31.2906 79.1333 36.1702 77.0099M44.4292 94.272C43.9032 94.7196 43.395 95.0977 42.9045 95.4128M36.1702 77.0099C36.411 76.9051 36.6649 76.8139 36.9326 76.7374C39.5113 76.0007 41.4746 76.8875 42.91 78.3893C44.6431 80.2025 45.6065 82.9122 45.954 84.7424M42.91 78.3893C44.7294 76.3563 49.7913 73.1797 55.4836 76.7374M13.4261 58.4405C12.7061 57.7205 10.8848 56.5346 9.3601 57.5511M13.4261 58.4405C13.8073 59.1605 14.3918 60.9055 13.6802 62.1253M13.6802 62.1253C12.8755 61.7441 10.9611 61.2359 9.74129 62.2524M13.6802 62.1253C14.1885 63.0994 14.3663 65.3527 11.0119 66.5725M36.1702 77.0099C35.662 78.0626 34.9338 79.7869 35.4421 81.0576M41.2527 77.3728C40.2785 78.1351 38.7457 79.2787 39.2539 81.1846M7.83535 74.3233C6.90357 75.0856 5.29411 77.0932 6.31061 79.0246M2.75287 75.4602C2.58345 76.4789 2.22804 78.313 3.04124 79.0246" stroke="#8C7F7E" stroke-linecap="round"/>
<path d="M14.5699 63.0158C14.8748 63.3208 15.4593 63.8206 15.8405 64.0323L17.1111 66.5736C15.5864 66.7769 14.231 66.15 13.6804 65.6842C14.392 64.871 14.6122 63.4817 14.5699 63.0158Z" fill="#535DDF"/>
<path d="M14.3157 53.4862C13.5025 53.1812 12.5369 53.6556 12.0286 53.9944C12.4945 54.3333 13.655 55.2651 14.0616 55.7733H14.4428C14.5445 55.7733 14.3581 54.2485 14.3157 53.4862Z" fill="#535DDF"/>
<path d="M15.8405 64.0323L16.2877 63.8087L16.2185 63.6704L16.0833 63.5953L15.8405 64.0323ZM14.5699 63.0158L14.9234 62.6623L13.9469 61.6858L14.0719 63.0611L14.5699 63.0158ZM13.6804 65.6842L13.3041 65.3549C13.2159 65.4558 13.1718 65.5879 13.1818 65.7215C13.1919 65.8552 13.2551 65.9793 13.3575 66.0658L13.6804 65.6842ZM17.1111 66.5736L17.1772 67.0692L17.8716 66.9766L17.5583 66.35L17.1111 66.5736ZM12.0286 53.9944L11.7513 53.5784L11.154 53.9766L11.7345 54.3988L12.0286 53.9944ZM14.3157 53.4862L14.815 53.4585L14.7969 53.1326L14.4913 53.018L14.3157 53.4862ZM14.0616 55.7733L13.6712 56.0857L13.8213 56.2733H14.0616V55.7733ZM15.8405 64.0323L16.0833 63.5953C15.7625 63.417 15.2167 62.9555 14.9234 62.6623L14.5699 63.0158L14.2163 63.3694C14.533 63.6861 15.1561 64.2241 15.5977 64.4694L15.8405 64.0323ZM14.5699 63.0158L14.0719 63.0611C14.0857 63.2132 14.0554 63.6132 13.9256 64.0879C13.7972 64.5572 13.5907 65.0274 13.3041 65.3549L13.6804 65.6842L14.0567 66.0134C14.4817 65.5277 14.7411 64.8967 14.8902 64.3517C15.0378 63.8119 15.0963 63.2844 15.0678 62.9706L14.5699 63.0158ZM13.6804 65.6842L13.3575 66.0658C14.0033 66.6123 15.497 67.2932 17.1772 67.0692L17.1111 66.5736L17.045 66.078C15.6757 66.2605 14.4587 65.6878 14.0034 65.3025L13.6804 65.6842ZM17.1111 66.5736L17.5583 66.35L16.2877 63.8087L15.8405 64.0323L15.3933 64.256L16.6639 66.7972L17.1111 66.5736ZM12.0286 53.9944L12.306 54.4105C12.533 54.2591 12.8566 54.082 13.2024 53.9775C13.552 53.8719 13.875 53.8549 14.1402 53.9544L14.3157 53.4862L14.4913 53.018C13.9433 52.8125 13.3768 52.8802 12.9132 53.0203C12.4459 53.1614 12.0325 53.391 11.7513 53.5784L12.0286 53.9944ZM14.0616 55.7733V56.2733H14.4428V55.7733V55.2733H14.0616V55.7733ZM14.4428 55.7733V56.2733C14.6229 56.2733 14.7519 56.1823 14.8225 56.1041C14.8852 56.0347 14.9147 55.9642 14.9274 55.9298C14.9538 55.8587 14.962 55.7919 14.9655 55.7587C14.9736 55.6818 14.9737 55.5925 14.9716 55.5108C14.9674 55.3402 14.9512 55.113 14.9316 54.8747C14.8911 54.382 14.8357 53.8314 14.815 53.4585L14.3157 53.4862L13.8165 53.5139C13.8381 53.9033 13.8971 54.4963 13.935 54.9566C13.9545 55.1947 13.9685 55.3964 13.9719 55.5355C13.9728 55.5694 13.9729 55.597 13.9725 55.6186C13.9723 55.6293 13.972 55.6377 13.9717 55.644C13.9715 55.6471 13.9714 55.6495 13.9712 55.6513C13.9712 55.6521 13.9711 55.6528 13.9711 55.6532C13.9711 55.6535 13.971 55.6536 13.971 55.6537C13.971 55.6539 13.971 55.6539 13.971 55.6539C13.971 55.6539 13.971 55.6538 13.971 55.6537C13.9711 55.6536 13.9711 55.6534 13.9711 55.6531C13.9712 55.6526 13.9713 55.6518 13.9714 55.6507C13.9717 55.6487 13.9723 55.645 13.9733 55.64C13.9748 55.632 13.9793 55.6105 13.9898 55.5822C13.9983 55.5591 14.023 55.4973 14.0805 55.4337C14.1459 55.3613 14.269 55.2733 14.4428 55.2733V55.7733ZM12.0286 53.9944L11.7345 54.3988C11.9558 54.5597 12.3525 54.8694 12.7438 55.2015C13.1443 55.5415 13.5016 55.8736 13.6712 56.0857L14.0616 55.7733L14.4521 55.461C14.2151 55.1647 13.7887 54.7768 13.3909 54.4391C12.9838 54.0936 12.5674 53.768 12.3227 53.5901L12.0286 53.9944Z" fill="#4C529E"/>
<path d="M24.8622 48.9102C18.5599 49.0118 15.4596 50.7314 14.6972 51.5785C14.6972 51.875 15.0276 52.6966 16.349 53.6115C18.0008 54.755 28.1658 56.1527 32.74 55.5174C37.3143 54.8821 45.1921 52.2138 43.7944 51.1973C42.6763 50.3841 41.2955 49.9267 40.7449 49.7996C35.5354 48.529 32.74 48.7831 24.8622 48.9102Z" fill="white" stroke="#4C529E" stroke-linecap="round"/>
<path d="M25.7517 51.8326C23.0071 51.9343 20.1186 52.722 19.0174 53.1032C19.1021 54.2044 20.8725 56.4322 27.2764 56.5339C33.6804 56.6355 38.585 54.2891 40.2368 53.1032C40.0673 52.8915 39.2203 52.3917 37.1873 52.0867C34.646 51.7056 29.1824 51.7056 25.7517 51.8326Z" fill="#8C7F7E"/>
<path d="M20.1612 68.8601C14.8754 66.2172 14.3163 56.3233 14.6975 51.7067C24.151 56.3826 38.0346 53.4856 43.7947 51.4526C43.9217 52.4268 44.0234 55.6711 43.4135 60.8552C42.6511 67.3354 37.0604 70.1307 35.1544 70.7661C33.2485 71.4014 26.7684 72.1637 20.1612 68.8601Z" fill="#535DDF" stroke="#4C529E" stroke-linecap="round" stroke-linejoin="round"/>
<path d="M46.9711 55.7706C49.0041 56.7871 52.223 57.2954 53.5783 57.4224L58.7876 70.3827C54.5946 73.5593 47.6062 70.7639 42.7778 68.6039C38.9151 66.8758 39.0508 64.8344 39.6015 64.0296C37.6701 61.895 39.305 59.6672 40.3638 58.8201C40.745 56.4059 44.4298 54.5 46.9711 55.7706Z" fill="white"/>
<path d="M53.8338 57.5513C53.7067 57.5513 47.3536 56.0265 46.5912 55.6454C45.8289 55.2642 42.1441 54.7559 40.2381 58.6949M40.2381 58.6949C41.1276 58.6101 43.1351 58.5678 44.05 59.0761M40.2381 58.6949C38.7119 59.3302 37.2399 62.4051 39.4762 64.0315M42.271 63.6503C41.5595 63.2437 40.111 63.735 39.4758 64.0315C38.8404 64.9209 38.7387 67.1318 43.4146 68.8598C49.2594 71.0199 54.8502 73.1799 58.9162 70.3846" stroke="#8C7F7E"/>
<ellipse cx="37.8215" cy="88.2997" rx="2.54124" ry="4.19305" fill="#F1ADAA" fill-opacity="0.46"/>
<ellipse cx="7.20968" cy="85.3954" rx="2.54124" ry="4.19305" transform="rotate(-22.417 7.20968 85.3954)" fill="#F1ADAA" fill-opacity="0.46"/>
<ellipse cx="8.0136" cy="79.7364" rx="0.645323" ry="1.07554" transform="rotate(-17.6108 8.0136 79.7364)" fill="#F1ADAA" fill-opacity="0.46"/>
<ellipse cx="4.70934" cy="78.7194" rx="0.645323" ry="1.07554" transform="rotate(-17.6108 4.70934 78.7194)" fill="#F1ADAA" fill-opacity="0.46"/>
<ellipse cx="2.42214" cy="80.7524" rx="0.645323" ry="1.07554" transform="rotate(-17.6108 2.42214 80.7524)" fill="#F1ADAA" fill-opacity="0.46"/>
<ellipse cx="40.9216" cy="82.477" rx="0.645323" ry="1.07554" transform="rotate(9.34383 40.9216 82.477)" fill="#F1ADAA" fill-opacity="0.46"/>
<ellipse cx="37.363" cy="80.9526" rx="0.645323" ry="1.07554" transform="rotate(9.34383 37.363 80.9526)" fill="#F1ADAA" fill-opacity="0.46"/>
<ellipse cx="34.0598" cy="81.9695" rx="0.645323" ry="1.07554" transform="rotate(-0.605451 34.0598 81.9695)" fill="#F1ADAA" fill-opacity="0.46"/>
</svg>
